<svg xmlns="http://www.w3.org/2000/svg" xmlns:xlink="http://www.w3.org/1999/xlink" viewBox="0 0 1962.91 365.54"><defs><style>.cls-1{fill:url(#linear-gradient);}.cls-2{fill:url(#linear-gradient-2);}.cls-3{fill:#fff;}</style><linearGradient id="linear-gradient" x1="-9.97" y1="84.59" x2="328.54" y2="280.03" gradientUnits="userSpaceOnUse"><stop offset="0" stop-color="#283338"/><stop offset="0.56" stop-color="#282b2f"/><stop offset="0.99" stop-color="#282224"/></linearGradient><linearGradient id="linear-gradient-2" x1="25.09" y1="142.12" x2="298.64" y2="142.12" gradientUnits="userSpaceOnUse"><stop offset="0" stop-color="#ff6e54"/><stop offset="0.2" stop-color="#ff744b"/><stop offset="0.52" stop-color="#ff8531"/><stop offset="0.93" stop-color="#ff9f08"/><stop offset="0.99" stop-color="#ffa401"/></linearGradient></defs><title>getbukkitwhite</title><g id="Layer_21" data-name="Layer 21"><path class="cls-1" d="M314.27,48.34c-30.69-9.94-83.6-16.51-143.81-16.51-59.59,0-112.08,6.43-142.9,16.19h0C9.61,54.33-3.09,58.8.66,81.07c0,.25.06.45.09.68l40,237.57c0,.12.05.21.07.33,4,23.5,9.49,26.66,23.11,33h0c22.46,7.75,61.75,12.89,106.49,12.89s84.07-5.14,106.53-12.9c13.6-6.33,19.12-9.5,23.08-33L340.28,81.07C344,59.18,331.73,54.49,314.27,48.34Z" transform="translate(0 0)"/></g><g id="Layer_10" data-name="Layer 10"><path class="cls-2" d="M259.74,24.41c-8.63-.13-23.55,6.29-37.26,7.48-1.79,0-3.52.1-5.21.18-6.65-.18-12.76-2-17.37-7.1-53-58.23-68.72,3.5-100.52,4.55S73.94,16.57,25.09,48.83h0q2.45-.82,5.11-1.61l.15,0q2.64-.79,5.47-1.54l.06,0c3-.81,6.26-1.59,9.61-2.34,15-2.7,20.69,4.26,23.06,8,13.11,23.69-.74,54-.74,54h0c-6.54,15.83-16.9,28.87-16.9,46.3,0,.06,0,.11,0,.17a37.7,37.7,0,0,0,75.4,0c0-17.26-10.14-30.23-16.69-45.85-5.25-13.69-4.39-18.4-2.33-29.5,5.09-16.81,19.58-34.88,46-24.36l0,0a36.06,36.06,0,0,1,8.88,7.22c7.34,8.15,12.49,19.06,14,33.64,7.82,76.26-37.15,90-37.15,136.88,0,.11,0,.22,0,.34,0,29.89,24.48,54.12,54.67,54.12s54.67-24.23,54.67-54.12c0-.11,0-.22,0-.34,0-46.93-45-60.62-37.15-136.88,3-28.81,20.15-43.38,40.39-50.36,1.31-.38,2.58-.72,3.85-1h0l.14,0a53.74,53.74,0,0,1,10.16-1.63h0l1.18-.05h.22a103.71,103.71,0,0,1,12.06.32l2.32.4,1,.18q3.71.68,7.23,1.4l.86.17,3.28.7,1.57.35,3.14.72h0C287.62,36.32,269.21,24.55,259.74,24.41Z" transform="translate(0 0)"/></g><g id="Layer_23_copy_2" data-name="Layer 23 copy 2"><path class="cls-3" d="M374.73,258.26v-107q0-107.66,89.61-107.66,18.9,0,33.67,5a71.39,71.39,0,0,1,24.72,13.75,70.4,70.4,0,0,1,16.37,21.6,106.85,106.85,0,0,1,9.28,27.84,176.82,176.82,0,0,1,2.87,33.08V157a5.74,5.74,0,0,1-5.74,5.74H498.26a5.74,5.74,0,0,1-5.74-5.74V141.49q0-7.93-.42-13.92A87.91,87.91,0,0,0,490,114.23a41.07,41.07,0,0,0-4.56-12.06,23.42,23.42,0,0,0-8.27-7.93A24.68,24.68,0,0,0,464.34,91q-28.18,0-28.18,44.89V267q0,44.72,28.18,44.72,28,0,28-46.41V246.79a5.74,5.74,0,0,0-5.74-5.74H463.32a5.74,5.74,0,0,1-5.74-5.74V202.74a5.74,5.74,0,0,1,5.74-5.74H548a5.74,5.74,0,0,1,5.74,5.74V347.53a5.74,5.74,0,0,1-5.74,5.74H515.6a5.74,5.74,0,0,1-5.39-3.77l-2.86-7.84a5.73,5.73,0,0,0-9.59-1.9,60.47,60.47,0,0,1-16,11.9,63,63,0,0,1-29.53,7.51,72.27,72.27,0,0,1-29.79-6,63.3,63.3,0,0,1-22.11-15.86,89.81,89.81,0,0,1-14.6-23.2,120,120,0,0,1-8.44-27.25A159.53,159.53,0,0,1,374.73,258.26Z" transform="translate(0 0)"/><path class="cls-3" d="M591,347.53V55.25a5.74,5.74,0,0,1,5.74-5.74H712a5.74,5.74,0,0,1,5.74,5.74V86A5.74,5.74,0,0,1,712,91.7H658.14a5.74,5.74,0,0,0-5.74,5.74v71.22a5.74,5.74,0,0,0,5.74,5.74h34.76a5.74,5.74,0,0,1,5.74,5.74v31.73a5.74,5.74,0,0,1-5.74,5.74H658.14a5.74,5.74,0,0,0-5.74,5.74v82a5.74,5.74,0,0,0,5.74,5.74H712a5.74,5.74,0,0,1,5.74,5.74v30.72a5.74,5.74,0,0,1-5.74,5.74H596.72A5.74,5.74,0,0,1,591,347.53Z" transform="translate(0 0)"/><path class="cls-3" d="M787.94,347.53V101.15a5.74,5.74,0,0,0-5.74-5.74H749.12a5.74,5.74,0,0,1-5.74-5.74V55.25a5.74,5.74,0,0,1,5.74-5.74H887.33a5.74,5.74,0,0,1,5.74,5.74V89.68a5.74,5.74,0,0,1-5.74,5.74H855.1a5.74,5.74,0,0,0-5.74,5.74V347.53a5.74,5.74,0,0,1-5.74,5.74h-50A5.74,5.74,0,0,1,787.94,347.53Z" transform="translate(0 0)"/><path class="cls-3" d="M920.14,347.53V55.25a5.74,5.74,0,0,1,5.74-5.74h56.87a221.46,221.46,0,0,1,29.78,1.77,102,102,0,0,1,25.31,6.92A57.59,57.59,0,0,1,1058.26,72q8,8.6,12.82,22.7T1075.9,128q0,23.79-11.22,37.46-7.6,9.25-20.87,15.87a5.75,5.75,0,0,0,.3,10.47Q1084,209.21,1084,263.66q0,45.73-21.94,67.67t-67,21.94H925.88A5.74,5.74,0,0,1,920.14,347.53Zm61.09-184.28A5.74,5.74,0,0,0,987,169h4.73q8.44,0,14.18-3.21a20.66,20.66,0,0,0,8.69-9.37,49.21,49.21,0,0,0,4.13-13.25,103.11,103.11,0,0,0,1.18-16.71,71.66,71.66,0,0,0-1.1-13.33,66.42,66.42,0,0,0-2.45-9.53,14.38,14.38,0,0,0-4.56-6.41,34.31,34.31,0,0,0-5.65-3.88,22.76,22.76,0,0,0-7.42-1.86q-5-.59-8-.68-1.44,0-3.64-.06a5.75,5.75,0,0,0-5.81,5.74Zm.34,140.91a5.74,5.74,0,0,0,5.74,5.74h0q12,0,19.41-2.78a21.25,21.25,0,0,0,11.31-9.53,43,43,0,0,0,5.15-15.27,163,163,0,0,0,1.27-22.87q0-23.79-8.35-37t-28.43-13.16h-.34a5.74,5.74,0,0,0-5.74,5.74Z" transform="translate(0 0)"/><path class="cls-3" d="M1111.43,240.37V55.25a5.74,5.74,0,0,1,5.74-5.74h50a5.74,5.74,0,0,1,5.74,5.74V238.52q0,16.2.17,23.54t.84,17.89q.67,10.55,2.36,14.77a63,63,0,0,0,4.64,9.11,13.86,13.86,0,0,0,7.68,6.41,44.1,44.1,0,0,0,23,0,14,14,0,0,0,7.68-6.33,60.45,60.45,0,0,0,4.64-9q1.68-4.21,2.36-14.6t.84-17.55q.17-7.17.17-23.2V55.25a5.74,5.74,0,0,1,5.74-5.74h50a5.74,5.74,0,0,1,5.74,5.74V240.37q0,14.52-.84,26.33a219.26,219.26,0,0,1-3.21,24.47,111.17,111.17,0,0,1-6.41,22.36,84,84,0,0,1-10.8,18.56,59.55,59.55,0,0,1-15.94,14.6,79.61,79.61,0,0,1-22.19,9.11,128,128,0,0,1-58.39,0,78.25,78.25,0,0,1-22.11-9.11,60,60,0,0,1-15.86-14.6,83.78,83.78,0,0,1-10.8-18.56,114.58,114.58,0,0,1-6.5-22.36,206.2,206.2,0,0,1-3.29-24.47Q1111.43,254.89,1111.43,240.37Z" transform="translate(0 0)"/><path class="cls-3" d="M1323.64,347.53V55.25a5.74,5.74,0,0,1,5.74-5.74h50a5.74,5.74,0,0,1,5.74,5.74v80.6a5.74,5.74,0,0,0,11,2.19l35.09-85a5.74,5.74,0,0,1,5.3-3.55h55.58a5.74,5.74,0,0,1,5.14,8.29l-56.7,113.85a5.74,5.74,0,0,0-.24,4.55L1503,345.54a5.74,5.74,0,0,1-5.38,7.73h-51.4a5.74,5.74,0,0,1-5.45-3.94l-39.59-119.78a5.74,5.74,0,0,0-10.79-.28l-5,12.8a5.74,5.74,0,0,0-.39,2.08V347.53a5.74,5.74,0,0,1-5.74,5.74h-50A5.74,5.74,0,0,1,1323.64,347.53Z" transform="translate(0 0)"/><path class="cls-3" d="M1524.18,347.53V55.25a5.74,5.74,0,0,1,5.74-5.74h50a5.74,5.74,0,0,1,5.74,5.74v80.6a5.74,5.74,0,0,0,11,2.19l35.09-85a5.74,5.74,0,0,1,5.3-3.55h55.58a5.74,5.74,0,0,1,5.14,8.29l-56.7,113.85a5.74,5.74,0,0,0-.24,4.55l62.76,169.32a5.74,5.74,0,0,1-5.38,7.73h-51.4a5.74,5.74,0,0,1-5.45-3.94l-39.59-119.78a5.74,5.74,0,0,0-10.79-.28l-5,12.8a5.74,5.74,0,0,0-.39,2.08V347.53a5.74,5.74,0,0,1-5.74,5.74h-50A5.74,5.74,0,0,1,1524.18,347.53Z" transform="translate(0 0)"/><path class="cls-3" d="M1724.73,347.53V55.25a5.74,5.74,0,0,1,5.74-5.74h50a5.74,5.74,0,0,1,5.74,5.74V347.53a5.74,5.74,0,0,1-5.74,5.74h-50A5.74,5.74,0,0,1,1724.73,347.53Z" transform="translate(0 0)"/><path class="cls-3" d="M1857.78,347.53V101.15a5.74,5.74,0,0,0-5.74-5.74H1819a5.74,5.74,0,0,1-5.74-5.74V55.25a5.74,5.74,0,0,1,5.74-5.74h138.21a5.74,5.74,0,0,1,5.74,5.74V89.68a5.74,5.74,0,0,1-5.74,5.74h-32.23a5.74,5.74,0,0,0-5.74,5.74V347.53a5.74,5.74,0,0,1-5.74,5.74h-50A5.74,5.74,0,0,1,1857.78,347.53Z" transform="translate(0 0)"/></g></svg>