<?xml version="1.0" encoding="iso-8859-1"?>
<!-- Generator: Adobe Illustrator 19.0.0, SVG Export Plug-In . SVG Version: 6.00 Build 0)  -->
<svg fill="#111827" version="1.1" id="Layer_1" xmlns="http://www.w3.org/2000/svg" xmlns:xlink="http://www.w3.org/1999/xlink" x="0px" y="0px"
	 viewBox="0 0 496 496" style="enable-background:new 0 0 496 496;" xml:space="preserve">
<g>
	<g>
		<g>
			<path d="M336,88c0-86.992-79.2-88-80-88h-9.976l16.448,73.992L230.72,81.32L214.032,6.24l-7.968,2
				C183.648,13.84,168,33.888,168,56.984v38.8l-8,1.848v18.12l2.872,2.4C163.328,118.52,208,156.248,208,200
				c0,26.08-4.872,81.896-9.176,131.16C195.168,373.072,192,409.264,192,424c0,47.776,18.84,72,56,72c37.16,0,56-24.224,56-72
				c0-14.736-3.168-50.928-6.824-92.84C292.872,281.896,288,226.08,288,200c0-21.632,11.096-36.664,22.832-52.576
				C323.208,130.664,336,113.328,336,88z M184,56.984c0-12.912,7.176-24.432,18.184-30.256l12.928,58.192L184,92.096V56.984z
				 M272,200c0,26.776,4.904,82.968,9.24,132.544C284.72,372.36,288,409.968,288,424c0,38.728-12.336,56-40,56s-40-17.272-40-56
				c0-14.032,3.28-51.64,6.76-91.456C219.096,282.968,224,226.776,224,200c0-42.512-33.712-78.192-46.288-90.032l103.824-23.96
				l-15.32-68.936C284.328,20.368,320,33.736,320,88c0,20.064-10.704,34.568-22.04,49.92C285.8,154.408,272,173.104,272,200z"/>
			
				<rect x="243.99" y="83.125" transform="matrix(-0.2167 -0.9762 0.9762 -0.2167 189.4463 392.0109)" width="15.999" height="73.757"/>
			<path d="M248,400c-13.232,0-24,10.768-24,24s10.768,24,24,24s24-10.768,24-24S261.232,400,248,400z M248,432
				c-4.416,0-8-3.584-8-8c0-4.416,3.584-8,8-8s8,3.584,8,8C256,428.416,252.416,432,248,432z"/>
		</g>
	</g>
</g>
<g>
</g>
<g>
</g>
<g>
</g>
<g>
</g>
<g>
</g>
<g>
</g>
<g>
</g>
<g>
</g>
<g>
</g>
<g>
</g>
<g>
</g>
<g>
</g>
<g>
</g>
<g>
</g>
<g>
</g>
</svg>
